<?xml version="1.0" encoding="UTF-8"?>
<svg width="752pt" height="752pt" version="1.1" viewBox="0 0 752 752" xmlns="http://www.w3.org/2000/svg">
 <g>
  <path d="m559.88 533.61h-367.77c-20.719 0-37.738 17.02-37.738 37.738s17.02 37.738 37.738 37.738h367.77c20.719 0 37.738-17.02 37.738-37.738s-16.648-37.738-37.738-37.738z"/>
  <path d="m229.12 515.48h294.14c20.719 0 37.738-17.02 37.738-37.738s-17.02-37.738-37.738-37.738h-294.14c-20.719 0-37.738 17.02-37.738 37.738s16.648 37.738 37.738 37.738z"/>
  <path d="m270.93 422.25h210.15c20.719 0 37.738-17.02 37.738-37.738s-17.02-37.738-37.738-37.738h-210.15c-20.719 0-37.738 17.02-37.738 37.738s17.02 37.738 37.738 37.738z"/>
  <path d="m313.84 328.64h124.32c20.719 0 37.738-16.652 37.738-37.738 0-20.719-17.02-37.738-37.738-37.738h-124.32c-20.719 0.36719-37.738 17.02-37.738 37.738 0 21.086 17.02 37.738 37.738 37.738z"/>
  <path d="m340.11 142.91h72.148v92.496h-72.148z"/>
 </g>
</svg>
